<svg xmlns="http://www.w3.org/2000/svg" viewBox="0 0 30 20">
  <rect width="30" height="20" fill="#b22234"/>
  <rect width="30" height="2" y="2" fill="#fff"/>
  <rect width="30" height="2" y="5.5" fill="#fff"/>
  <rect width="30" height="2" y="9" fill="#fff"/>
  <rect width="30" height="2" y="12.5" fill="#fff"/>
  <rect width="30" height="2" y="16" fill="#fff"/>
  <rect width="12" height="10.5" fill="#3c3b6e"/>
  <circle cx="1.5" cy="1.5" r="0.55" fill="#fff"/><circle cx="4.5" cy="1.5" r="0.55" fill="#fff"/>
  <circle cx="7.5" cy="1.5" r="0.55" fill="#fff"/><circle cx="10.5" cy="1.5" r="0.55" fill="#fff"/>
  <circle cx="3.0" cy="3.5" r="0.55" fill="#fff"/><circle cx="6.0" cy="3.5" r="0.55" fill="#fff"/>
  <circle cx="9.0" cy="3.5" r="0.55" fill="#fff"/>
  <circle cx="1.5" cy="5.5" r="0.55" fill="#fff"/><circle cx="4.5" cy="5.5" r="0.55" fill="#fff"/>
  <circle cx="7.5" cy="5.5" r="0.55" fill="#fff"/><circle cx="10.5" cy="5.5" r="0.55" fill="#fff"/>
  <circle cx="3.0" cy="7.5" r="0.55" fill="#fff"/><circle cx="6.0" cy="7.5" r="0.55" fill="#fff"/>
  <circle cx="9.0" cy="7.5" r="0.55" fill="#fff"/>
  <circle cx="1.5" cy="9.5" r="0.55" fill="#fff"/><circle cx="4.5" cy="9.5" r="0.55" fill="#fff"/>
  <circle cx="7.5" cy="9.5" r="0.55" fill="#fff"/><circle cx="10.5" cy="9.5" r="0.55" fill="#fff"/>
  <rect width="30" height="20" fill="none" stroke="#484f58" stroke-width="1" rx="1"/>
</svg>
